<svg width="57" height="64" viewBox="0 0 57 64" fill="none" xmlns="http://www.w3.org/2000/svg">
<path d="M56.4 44.258V18.9306C56.4 16.6897 55.2068 14.6242 53.2667 13.5012L31.3333 0.837503C29.3932 -0.28047 27.0068 -0.28047 25.0667 0.837503L3.13333 13.5012C1.19317 14.6192 0 16.6897 0 18.9306V44.258C0 46.4989 1.19317 48.5644 3.13333 49.6874L25.0667 62.3511C27.0068 63.4691 29.3932 63.4691 31.3333 62.3511L53.2667 49.6874C55.2068 48.5695 56.4 46.4989 56.4 44.258Z" fill="#7B62D5"/>
<path d="M31.038 27.7598V31.9359C30.0805 31.7704 29.0978 31.6852 28.0952 31.6852C27.0925 31.6852 26.1099 31.7704 25.1523 31.9359V27.7598H31.038Z" fill="#9E9EE8"/>
<path d="M22.7806 27.7598V32.5174C21.3769 32.9686 20.0483 33.5903 18.8301 34.3673V27.7598H22.7806Z" fill="#9E9EE8"/>
<path d="M37.3646 27.7598V34.3673C36.1413 33.5953 34.8178 32.9686 33.4141 32.5174V27.7598H37.3646Z" fill="#9E9EE8"/>
<path d="M38.4275 25.0176H17.8678C17.4193 25.0176 17.0557 25.3812 17.0557 25.8297V26.9477C17.0557 27.3963 17.4193 27.7599 17.8678 27.7599H38.4275C38.876 27.7599 39.2397 27.3963 39.2397 26.9477V25.8297C39.2397 25.3812 38.876 25.0176 38.4275 25.0176Z" fill="white"/>
<path d="M40.2272 20.2295H16.0729C15.5413 20.2295 15.1104 20.6604 15.1104 21.1921V22.5106C15.1104 23.0422 15.5413 23.4731 16.0729 23.4731H40.2272C40.7588 23.4731 41.1897 23.0422 41.1897 22.5106V21.1921C41.1897 20.6604 40.7588 20.2295 40.2272 20.2295Z" fill="white"/>
<path d="M31.043 43.7316C31.048 44.263 30.6119 44.6942 30.0805 44.6942H26.1199C25.5885 44.6942 25.1574 44.263 25.1574 43.7316V33.3139L25.1523 31.9352C26.1099 31.7698 27.0925 31.6846 28.0952 31.6846C29.0978 31.6846 30.0805 31.7698 31.038 31.9352V43.7316H31.043Z" fill="white"/>
<path d="M22.786 42.5994C22.786 43.1308 22.3548 43.562 21.8234 43.562H19.798C19.2666 43.562 18.8354 43.1308 18.8354 42.5994V34.3675C20.0487 33.5904 21.3772 32.9688 22.7809 32.5176V42.5994H22.786Z" fill="white"/>
<path d="M37.3646 34.3675V42.5994C37.3646 43.1308 36.9384 43.562 36.407 43.562H34.3766C33.8452 43.562 33.4191 43.1308 33.4191 42.5994V34.0918L33.4141 32.5176C34.8178 32.9688 36.1413 33.5954 37.3646 34.3675Z" fill="white"/>
</svg>
