<svg width="57" height="64" viewBox="0 0 57 64" fill="none" xmlns="http://www.w3.org/2000/svg">
<path d="M56.4 44.259V18.9316C56.4 16.6906 55.2068 14.6252 53.2667 13.5022L31.3333 0.83848C29.3932 -0.279493 27.0068 -0.279493 25.0667 0.83848L3.13333 13.5022C1.19317 14.6201 0 16.6906 0 18.9316V44.259C0 46.4999 1.19317 48.5654 3.13333 49.6884L25.0667 62.3521C27.0068 63.4701 29.3932 63.4701 31.3333 62.3521L53.2667 49.6884C55.2068 48.5704 56.4 46.4999 56.4 44.259Z" fill="#009657"/>
<path d="M40.5528 24.7969V41.02C40.5528 41.7921 39.9261 42.4137 39.1591 42.4137H35.2989C34.5268 42.4137 33.9102 41.7871 33.9102 41.02V36.6384C35.1434 36.1621 36.0208 34.9639 36.0208 33.5652C36.0208 32.748 35.725 32.006 35.2337 31.4345L40.5578 24.7969H40.5528Z" fill="white"/>
<path d="M40.553 17.007V18.491C39.3147 18.9672 38.4373 20.1654 38.4373 21.5641C38.4373 22.1908 38.6128 22.7673 38.9186 23.2687L33.9053 29.5203V17.007C33.9053 16.2349 34.5269 15.6133 35.294 15.6133H39.1542C39.9263 15.6133 40.5479 16.24 40.5479 17.007H40.553Z" fill="#5DD1A4"/>
<path d="M22.4997 21.3478V26.5867C21.2815 27.068 20.4192 28.2612 20.4192 29.6499C20.4192 29.9056 20.4493 30.1562 20.5095 30.3969L16.5088 33.3347C16.3032 33.1993 16.0827 33.084 15.8521 32.9988V21.3478C15.8521 20.5757 16.4787 19.9541 17.2458 19.9541H21.106C21.8781 19.9541 22.4997 20.5808 22.4997 21.3478Z" fill="#5DD1A4"/>
<path d="M22.4997 32.7085V41.0206C22.4997 41.7926 21.8731 42.4143 21.106 42.4143H17.2458C16.4737 42.4143 15.8521 41.7876 15.8521 41.0206V39.1406C17.0853 38.6693 17.9677 37.4711 17.9677 36.0724C17.9677 35.7465 17.9226 35.4357 17.8273 35.1399L21.7277 32.2773C21.9633 32.4578 22.224 32.6082 22.5048 32.7135L22.4997 32.7085Z" fill="white"/>
<path d="M31.5441 24.6564V30.4919C31.0228 30.6874 30.5716 31.0183 30.2206 31.4294L26.997 29.9856C27.0071 29.8753 27.0121 29.76 27.0121 29.6497C27.0121 28.251 26.1348 27.0478 24.8965 26.5765V24.6564C24.8965 23.8844 25.5231 23.2627 26.2902 23.2627H30.1504C30.9175 23.2627 31.5392 23.8894 31.5392 24.6564H31.5441Z" fill="#5DD1A4"/>
<path d="M31.544 36.6383V41.02C31.544 41.792 30.9174 42.4137 30.1554 42.4137H26.2951C25.523 42.4137 24.9014 41.787 24.9014 41.02V32.7229C25.3275 32.5675 25.7085 32.3168 26.0294 32.001L29.4385 33.5301V33.5651C29.4385 34.9639 30.3158 36.1671 31.5491 36.6383H31.544Z" fill="white"/>
<path d="M39.3096 47.5882H17.0905C16.3184 47.5882 15.6968 46.9615 15.6968 46.1945C15.6968 45.4274 16.3235 44.8008 17.0905 44.8008H39.3096C40.0817 44.8008 40.7033 45.4274 40.7033 46.1945C40.7033 46.9615 40.0766 47.5882 39.3096 47.5882Z" fill="white"/>
</svg>
