<svg width="57" height="64" viewBox="0 0 57 64" fill="none" xmlns="http://www.w3.org/2000/svg">
<path d="M56.4 44.259V18.9316C56.4 16.6906 55.2068 14.6251 53.2667 13.5022L31.3333 0.83848C29.3932 -0.279493 27.0068 -0.279493 25.0667 0.83848L3.13333 13.5022C1.19317 14.6201 0 16.6906 0 18.9316V44.259C0 46.4999 1.19317 48.5654 3.13333 49.6884L25.0667 62.3521C27.0068 63.47 29.3932 63.47 31.3333 62.3521L53.2667 49.6884C55.2068 48.5704 56.4 46.4999 56.4 44.259Z" fill="#1A6AFF"/>
<path d="M41.8062 17.5431C41.0241 17.2523 40.1618 17.6534 39.871 18.4304L39.5802 19.2225C39.2393 19.1824 38.8683 19.1373 38.4723 19.0922C34.5569 18.641 29.1926 18.0143 26.33 19.1524C25.8387 19.3529 25.5078 19.8191 25.4827 20.3505C25.4426 21.2429 25.3975 22.1202 25.3674 23.0026C21.3868 24.4164 17.3611 25.414 13.3404 25.9755C12.8542 26.0457 12.438 26.3716 12.2526 26.8278C12.0671 27.284 12.1372 27.8154 12.438 28.2165C17.2258 34.7288 27.4881 36.7993 29.6488 36.7993C29.6739 36.7993 29.699 36.7993 29.724 36.7943H29.734C30.1251 36.7943 30.4961 36.6439 30.7768 36.3681C31.0927 36.0573 31.2531 35.6312 31.223 35.195C31.1679 34.3478 31.1378 33.5206 31.1328 32.7285C32.1805 33.2799 33.1832 33.8765 33.9803 34.3678L29.0071 47.8186C28.7214 48.6007 29.1174 49.463 29.8945 49.7537C30.0699 49.8189 30.2454 49.849 30.4159 49.849C31.0275 49.849 31.604 49.473 31.8296 48.8614L42.6935 19.4732C42.9843 18.6961 42.5832 17.8288 41.8062 17.5431ZM36.6575 27.1185L34.8627 31.9714C33.7798 31.3097 32.5014 30.5777 31.213 29.9661C30.8069 29.7706 30.4008 29.5901 29.9947 29.4247C29.9195 29.3946 29.8443 29.3595 29.7691 29.3344C29.6338 29.2793 29.4984 29.2241 29.3681 29.179C29.1675 29.1038 28.967 29.0336 28.7715 28.9685C28.4907 28.8782 28.215 28.798 27.9443 28.7328C27.849 27.4845 27.819 26.3114 27.824 25.1483C27.824 25.0179 27.824 24.8876 27.824 24.7623C27.829 24.3161 27.839 23.8749 27.854 23.4287V23.4087C27.8691 22.9575 27.8891 22.5013 27.9092 22.04C27.9192 21.7894 27.9292 21.5387 27.9443 21.278C28.4958 21.1477 29.1425 21.0725 29.8594 21.0424C30.0048 21.0374 30.1502 21.0323 30.2955 21.0273C30.4008 21.0223 30.5061 21.0223 30.6164 21.0223C30.7217 21.0173 30.832 21.0173 30.9372 21.0173C31.4085 21.0173 31.8948 21.0323 32.3911 21.0524H32.3961C34.4265 21.1476 36.5672 21.3983 38.1765 21.5838C38.347 21.6039 38.5174 21.6239 38.6778 21.644L36.6524 27.1185H36.6575ZM15.7118 28.1864C15.7118 28.1864 15.6867 28.1613 15.6716 28.1463C15.9674 28.0961 16.2682 28.041 16.564 27.9808C16.8147 27.9357 17.0654 27.8856 17.316 27.8354C17.9577 27.7051 18.6044 27.5647 19.2462 27.4093C19.6572 27.3141 20.0734 27.2138 20.4844 27.1085C20.8955 27.0032 21.3116 26.8929 21.7227 26.7826C22.9259 26.4468 24.1241 26.0758 25.3223 25.6697V25.6797L25.7535 30.1967C25.8186 30.302 25.8888 30.4023 25.969 30.4925C26.2448 30.8033 26.6258 31.0239 27.0519 31.1041C27.5382 31.1944 28.0746 31.3648 28.6361 31.5804C28.6161 32.4176 28.6261 33.295 28.6612 34.2024C26.0693 33.8163 19.6422 32.1018 15.7118 28.1864Z" fill="white"/>
<path d="M38.6831 21.6442L36.6577 27.1188C35.8054 26.8581 33.75 26.1813 31.6995 25.695C31.2834 25.5998 30.8723 25.5045 30.4662 25.4293C30.0401 25.3441 29.624 25.2739 29.233 25.2238C28.7116 25.1636 28.2303 25.1335 27.8242 25.1486C27.8242 25.0182 27.8242 24.8879 27.8242 24.7625C27.8292 24.3163 27.8393 23.8752 27.8543 23.429V23.4089C27.8693 22.9577 27.8894 22.5015 27.9094 22.0403C27.9195 21.7896 27.9295 21.539 27.9445 21.2783C28.496 21.1479 29.1427 21.0727 29.8596 21.0426C30.005 21.0376 30.1504 21.0326 30.2958 21.0276C30.4011 21.0226 30.5064 21.0226 30.6166 21.0226C30.7219 21.0176 30.8322 21.0176 30.9375 21.0176C31.4088 21.0176 31.895 21.0326 32.3914 21.0527H32.3964C34.4268 21.1479 36.5675 21.3986 38.1768 21.5841C38.3472 21.6041 38.5177 21.6242 38.6781 21.6442H38.6831Z" fill="#34AFFF"/>
<path d="M25.7532 30.197C22.3141 29.3096 19.0805 28.7381 15.7115 28.1866C15.6965 28.1716 15.6864 28.1615 15.6714 28.1465C15.9672 28.0964 16.268 28.0412 16.5638 27.9811C16.8144 27.9359 17.0651 27.8858 17.3158 27.8357C17.9575 27.7053 18.6042 27.565 19.2459 27.4095C19.657 27.3143 20.0731 27.214 20.4842 27.1087C20.8953 27.0035 21.3114 26.8932 21.7225 26.7829C22.9257 26.447 24.1239 26.076 25.3221 25.6699V25.6799L25.7532 30.197Z" fill="#34AFFF"/>
</svg>
