<svg width="57" height="64" viewBox="0 0 57 64" fill="none" xmlns="http://www.w3.org/2000/svg">
<path d="M56.3999 20.6206V43.2687C56.3999 46.171 54.8508 48.8531 52.3391 50.3143L32.4361 61.8335C29.9144 63.2947 26.8112 63.2997 24.2895 61.8585L4.10078 50.3043C1.56904 48.8581 0.00488281 46.161 0.00488281 43.2437V20.6506C0.00488281 17.7333 1.56904 15.0361 4.11582 13.585L24.2945 2.0708C26.8162 0.634652 29.9144 0.639656 32.4211 2.09081L52.324 13.575C54.8457 15.0311 56.3949 17.7183 56.3949 20.6256L56.3999 20.6206Z" fill="#2CC3F2"/>
<path d="M45.6817 41.6221L44.0023 43.2934C43.8067 43.4886 43.4909 43.4886 43.2904 43.2934L34.5521 34.5765C34.3566 34.3813 34.0408 34.3813 33.8402 34.5765L33.6548 34.7566C33.4542 34.9518 33.4542 35.272 33.6548 35.4722L40.9792 42.783C41.1798 42.9782 41.1798 43.2934 40.9792 43.4936L39.3048 45.1649C39.1093 45.3601 38.7884 45.3601 38.5929 45.1649L31.2634 37.8491C31.0679 37.6539 30.757 37.6539 30.5615 37.8491L30.371 38.0392C30.1755 38.2344 30.1705 38.5547 30.371 38.7498L36.2767 44.6445C36.4722 44.8397 36.4722 45.1599 36.2767 45.3551L34.6023 47.0264C34.4068 47.2266 34.0859 47.2266 33.8904 47.0264L27.9797 41.1367C27.7841 40.9416 27.4683 40.9416 27.2728 41.1367L27.0873 41.3169C26.8868 41.512 26.8868 41.8323 27.0873 42.0324L31.5792 46.511C31.7748 46.7062 31.7748 47.0264 31.5792 47.2216L29.8998 48.8929C29.7042 49.0881 29.3884 49.0881 29.1879 48.8929L24.9767 44.6845L25.3276 44.3343C25.7588 43.9039 25.9944 43.3034 25.9643 42.6879C25.9392 42.1225 25.7036 41.5871 25.2975 41.1817L23.6181 39.5054V39.4404C23.8888 39.055 24.0392 38.5747 24.0292 38.0893C24.0091 37.5138 23.7735 36.9684 23.3624 36.5581L21.6829 34.8767C21.2518 34.4514 20.6802 34.2112 20.0786 34.2112C19.6274 34.2112 19.2013 34.3463 18.8353 34.5915L17.1158 32.8751C16.6946 32.4548 16.1281 32.2196 15.5265 32.2196C15.1054 32.2196 14.6993 32.3347 14.3484 32.5499C14.3334 32.5298 14.3133 32.5098 14.2933 32.4898L12.6138 30.8085C12.313 30.5132 11.942 30.3081 11.5359 30.218L10.6435 28.1664C10.433 27.696 10.5383 27.1455 10.9042 26.7803L19.4821 18.2134C19.7728 17.9182 20.1889 17.7831 20.6 17.8531L22.9914 18.2785L19.1512 22.1616C18.2839 23.0573 18.2839 24.4384 19.1261 25.3141L21.1415 27.4007C21.5526 27.8161 22.074 28.0563 22.6354 28.0913C22.6806 28.0913 22.7257 28.0913 22.7708 28.0913C23.232 28.0913 24.0592 27.686 24.0592 27.686L28.1351 25.7694C28.5813 25.5593 29.1127 25.6293 29.4887 25.9546L38.4224 33.6557L45.6918 40.9115C45.8873 41.1067 45.8873 41.4269 45.6918 41.6221H45.6817Z" fill="white"/>
<path d="M17.5266 36.5088L17.1506 36.8841L14.694 39.3311C14.5938 39.4362 14.4584 39.4862 14.323 39.4862C14.2178 39.4862 14.1125 39.4562 14.0222 39.3861C14.0072 39.3761 13.9872 39.3611 13.9721 39.3461L12.2926 37.6698C12.2926 37.6698 12.2576 37.6347 12.2475 37.6147C12.1021 37.4196 12.1272 37.1293 12.3077 36.9492L15.1402 34.1219C15.2405 34.0218 15.3758 33.9668 15.5112 33.9668C15.6365 33.9668 15.7619 34.0168 15.8571 34.1119L17.5416 35.7882C17.5416 35.7882 17.5416 35.7883 17.5516 35.7983C17.7371 35.9934 17.7221 36.3087 17.5266 36.5088Z" fill="white"/>
<path d="M22.1235 38.475L17.9474 42.6433C17.8571 42.7334 17.7418 42.7784 17.6215 42.7784C17.5112 42.7784 17.4009 42.7434 17.3107 42.6684C17.2906 42.6533 17.2756 42.6383 17.2605 42.6233L15.5811 40.947C15.5811 40.947 15.546 40.907 15.536 40.8869C15.3856 40.6918 15.3956 40.4266 15.561 40.2614L18.0476 37.7795L19.4163 36.4134L19.7371 36.0931C19.8274 36.003 19.9427 35.958 20.063 35.958C20.1933 35.958 20.3237 36.0131 20.424 36.1131L22.1034 37.7895C22.2989 37.9846 22.309 38.2899 22.1235 38.475Z" fill="white"/>
<path d="M13.0347 34.4264L11.3953 36.0627C11.3 36.1628 11.1697 36.2079 11.0444 36.2079C10.9391 36.2079 10.8338 36.1778 10.7486 36.1128C10.7285 36.1028 10.7085 36.0828 10.6884 36.0627L9.00894 34.3864C8.81342 34.1912 8.81342 33.876 9.00894 33.6808L10.6483 32.0445C10.7436 31.9445 10.8739 31.8994 11.0043 31.8994C11.1346 31.8994 11.2599 31.9445 11.3552 32.0445L13.0347 33.7209C13.0347 33.7209 13.0447 33.7309 13.0447 33.7359C13.2302 33.931 13.2252 34.2363 13.0347 34.4264Z" fill="white"/>
<path d="M24.0694 43.0939L23.7234 43.4442L21.2268 45.9362C21.1416 46.0213 21.0313 46.0613 20.916 46.0613C20.7856 46.0613 20.6503 46.0062 20.545 45.9062L18.8655 44.2298C18.8655 44.2298 18.8354 44.1998 18.8254 44.1798C18.67 43.9896 18.675 43.7144 18.8354 43.5493L21.3321 41.0573L21.683 40.712C21.7682 40.6269 21.8785 40.5869 21.9938 40.5869C22.1192 40.5869 22.2495 40.632 22.3498 40.732C22.3498 40.732 22.3531 40.7354 22.3598 40.742L24.0393 42.4184C24.2348 42.6135 24.2498 42.9138 24.0694 43.0939Z" fill="white"/>
<path d="M44.5438 34.8567L44.0024 35.4922C43.9021 35.6073 43.7567 35.6673 43.6163 35.6673H43.5862C43.4659 35.6673 43.3356 35.6022 43.2403 35.5022L30.5165 24.5334L29.7645 23.8829C29.3885 23.5626 28.8571 23.4876 28.4109 23.6978L23.4377 26.0396C22.9514 26.2698 22.3748 26.1597 22.0038 25.7744L20.3845 24.0981C20.194 23.9029 20.199 23.5877 20.3896 23.3875L25.077 18.6487L26.6261 17.0825L26.8267 16.8773C27.308 16.3919 27.9547 16.1367 28.6164 16.1367C28.6666 16.1367 28.7167 16.1367 28.7668 16.1367C28.9974 16.1517 29.2381 16.1918 29.4637 16.2768L39.5054 19.8647C40.2524 20.1299 40.8239 20.7354 41.0595 21.491L44.7844 33.6757C44.9148 34.081 44.8195 34.5264 44.5438 34.8517V34.8567Z" fill="white"/>
<path d="M38.8131 34.0562L24.0488 27.6861L28.1247 25.7696C28.5709 25.5594 29.1023 25.6345 29.4783 25.9547L38.1714 33.4457L38.412 33.6559L38.8131 34.0562Z" fill="#74DFFF"/>
</svg>
