<svg width="58" height="65" viewBox="0 0 58 65" fill="none" xmlns="http://www.w3.org/2000/svg">
<path d="M57.5 45.1202V19.2989C57.5 17.0142 56.2836 14.9084 54.3056 13.7635L31.9444 0.85288C29.9664 -0.286898 27.5336 -0.286898 25.5556 0.85288L3.19444 13.7635C1.21644 14.9033 0 17.0142 0 19.2989V45.1202C0 47.4049 1.21644 49.5107 3.19444 50.6556L25.5556 63.5662C27.5336 64.706 29.9664 64.706 31.9444 63.5662L54.3056 50.6556C56.2836 49.5158 57.5 47.4049 57.5 45.1202Z" fill="#7B62D5"/>
<path d="M28.7499 14.1719C18.9979 14.1719 11.0654 22.1043 11.0654 31.8563C11.0654 34.4528 11.6277 36.9163 12.6345 39.1397L13.851 34.4783C13.6977 33.6299 13.621 32.7508 13.621 31.8563C13.621 23.515 20.4085 16.7274 28.7499 16.7274C37.0912 16.7274 43.8788 23.515 43.8788 31.8563C43.8788 32.7457 43.8021 33.6145 43.6488 34.463L44.8703 39.1345C45.8721 36.9112 46.4343 34.4477 46.4343 31.8563C46.4343 22.1043 38.5019 14.1719 28.7499 14.1719Z" fill="#9E9EE8"/>
<path d="M43.3834 41.5425L42.4992 38.159L41.339 33.7021C41.2827 33.4823 41.1805 33.3085 41.0527 33.2012C40.0816 33.9627 38.8601 34.4125 37.5312 34.4125C36.8872 34.4125 36.2738 34.3052 35.6963 34.1109L37.889 42.2172C37.9503 42.4421 37.9912 42.6721 38.0014 42.9072H42.7905C43.1994 42.9072 43.4907 42.3245 43.4192 41.7265C43.409 41.6652 43.3987 41.6038 43.3834 41.5425Z" fill="white"/>
<path d="M34.6942 31.0332C35.0571 31.4728 35.5222 31.8255 36.0538 32.0555C36.5036 32.2599 37.0045 32.3672 37.5309 32.3672C38.0573 32.3672 38.5582 32.2548 39.0131 32.0555C39.5447 31.8255 40.0098 31.4728 40.3727 31.0332C40.9042 30.3892 41.2262 29.5663 41.2262 28.6719C41.2262 26.6326 39.5753 24.9766 37.5309 24.9766C36.6211 24.9766 35.788 25.3037 35.144 25.8557C35.2565 26.3361 35.3178 26.837 35.3178 27.3532C35.3178 28.5595 34.9907 29.689 34.4233 30.6601C34.5051 30.793 34.592 30.9157 34.6942 31.0332Z" fill="white"/>
<path d="M19.5038 42.9079C19.514 42.6779 19.5549 42.4479 19.6162 42.2179L21.8038 34.1117C21.2262 34.3059 20.6129 34.4133 19.9689 34.4133C18.6451 34.4133 17.4236 33.9635 16.4525 33.207C16.3247 33.3093 16.2225 33.483 16.1662 33.7028L15.0009 38.1648L14.1218 41.5433C14.1065 41.6046 14.0962 41.6659 14.086 41.7324C14.0145 42.3304 14.3058 42.9079 14.7147 42.9079H19.5038Z" fill="white"/>
<path d="M19.9693 24.9766C17.9299 24.9766 16.2739 26.6326 16.2739 28.6719C16.2739 29.5663 16.5959 30.3892 17.1275 31.0332C17.4955 31.4728 17.9606 31.8255 18.4921 32.0555C18.9419 32.2599 19.4428 32.3672 19.9693 32.3672C20.4957 32.3672 20.9966 32.2599 21.4464 32.0555C21.9779 31.8255 22.443 31.4728 22.811 31.0332C22.9081 30.9157 23.0001 30.793 23.0768 30.6601C22.5095 29.689 22.1824 28.5595 22.1824 27.3532C22.1824 26.837 22.2437 26.3361 22.3561 25.8557C21.7121 25.3037 20.879 24.9766 19.9693 24.9766Z" fill="white"/>
<path d="M23.905 34.1874L21.5896 42.7536C21.5743 42.8048 21.5641 42.8559 21.559 42.907C21.4925 43.2801 21.559 43.6532 21.7072 43.9292C21.8452 44.195 22.065 44.3688 22.3154 44.3688H35.1852C35.4356 44.3688 35.6554 44.195 35.7934 43.9292C35.9468 43.6532 36.0081 43.2801 35.9416 42.907C35.9365 42.8559 35.9263 42.8048 35.911 42.7536L33.6008 34.1874L33.4116 33.4821C33.335 33.1908 33.1816 32.9608 32.9925 32.8432C32.8954 32.7819 32.7932 32.7461 32.6859 32.7461H32.4916C32.2565 32.9148 32.0061 33.063 31.7454 33.1959C30.8459 33.661 29.8288 33.9217 28.7503 33.9217C27.6719 33.9217 26.6599 33.661 25.7603 33.1959C25.4996 33.063 25.2492 32.9148 25.009 32.7461H24.8199C24.7125 32.7461 24.6103 32.7768 24.5132 32.8432C24.3241 32.9557 24.1708 33.1857 24.0941 33.4821L23.905 34.1874Z" fill="white"/>
<path d="M36.3145 44.9512H36.2838L36.2429 44.9921L36.2378 44.9972C36.0385 45.1147 35.834 45.2221 35.6296 45.3243C34.7556 45.7741 33.8356 46.1421 32.8696 46.4129C31.5611 46.7861 30.176 46.9854 28.75 46.9854C27.324 46.9854 25.944 46.7861 24.6356 46.4129C23.6645 46.1421 22.7394 45.7741 21.8603 45.3192C21.6609 45.2221 21.4616 45.1147 21.2674 44.9972L21.2214 44.9512H16.8667C20.01 47.7981 24.1807 49.541 28.75 49.541C33.3194 49.541 37.49 47.7981 40.6334 44.9512H36.3145Z" fill="#9E9EE8"/>
<path d="M25.4328 30.4201C25.5197 30.5223 25.6168 30.6143 25.7139 30.7012C26.2403 31.1816 26.8792 31.5343 27.5846 31.7234C27.9577 31.8256 28.3461 31.8767 28.7499 31.8767C29.1537 31.8767 29.5421 31.8256 29.9152 31.7234C30.6206 31.5343 31.2595 31.1816 31.7859 30.7012C31.883 30.6143 31.9801 30.5223 32.0721 30.4201C32.389 30.0776 32.6548 29.6841 32.8541 29.2496V29.2394C33.125 28.6619 33.2732 28.0332 33.2732 27.3534C33.2732 27.149 33.2579 26.9445 33.2323 26.7452C33.171 26.2647 33.0279 25.8099 32.8286 25.3907C32.0977 23.8779 30.5439 22.8301 28.7499 22.8301C26.9559 22.8301 25.4072 23.8779 24.6712 25.3907C24.4719 25.8047 24.3339 26.2596 24.2675 26.735C24.2419 26.9394 24.2266 27.1439 24.2266 27.3534C24.2266 28.0332 24.3799 28.6823 24.6457 29.2599C24.8501 29.6892 25.1108 30.0776 25.4328 30.4201Z" fill="white"/>
</svg>
