<svg width="57" height="64" viewBox="0 0 57 64" fill="none" xmlns="http://www.w3.org/2000/svg">
<path d="M56.4 44.257V18.9296C56.4 16.6887 55.2068 14.6232 53.2667 13.5002L31.3333 0.836527C29.3932 -0.281446 27.0068 -0.281446 25.0667 0.836527L3.13333 13.5002C1.19317 14.6182 0 16.6887 0 18.9296V44.257C0 46.498 1.19317 48.5635 3.13333 49.6865L25.0667 62.3501C27.0068 63.4681 29.3932 63.4681 31.3333 62.3501L53.2667 49.6865C55.2068 48.5685 56.4 46.498 56.4 44.257Z" fill="#FC542D"/>
<path d="M42.2574 19.5115L30.5864 15.5059V15.5359C30.6164 15.6162 30.6415 15.6813 30.6666 15.7515L30.6866 15.7916L30.6966 15.8267C30.7317 15.922 30.7668 16.0222 30.812 16.1275C30.9323 16.4133 31.0376 16.6439 31.1328 16.8494L31.188 16.9647L31.198 16.9848C31.2882 17.1753 31.3885 17.3608 31.4888 17.5413C31.5188 17.5964 31.5539 17.6566 31.584 17.7117C31.6291 17.797 31.6742 17.8772 31.7244 17.9574L31.7344 17.9724V17.9824C31.8948 18.2431 32.0452 18.4788 32.2057 18.7094L41.4452 21.8828V31.724C41.4001 33.5789 41.0141 35.865 39.9763 38.2012C39.7357 38.7427 39.46 39.2891 39.1391 39.8356C38.9787 40.1113 38.8082 40.392 38.6177 40.6728C38.5626 40.758 38.5024 40.8483 38.4473 40.9335C38.342 41.0839 38.2367 41.2393 38.1214 41.3897C37.0536 42.8586 35.6348 44.3075 33.7498 45.5758C33.6244 45.6611 33.4991 45.7413 33.3688 45.8265C33.3637 45.8265 33.3637 45.8265 33.3587 45.8265C31.8998 46.784 30.1903 47.6463 28.2 48.3632C26.2097 47.6463 24.5002 46.784 23.0463 45.8265C23.0112 45.8014 22.9761 45.7814 22.941 45.7613C20.9106 44.4428 19.4016 42.9288 18.2836 41.3847H18.2786C18.1032 41.144 17.9377 40.9034 17.7823 40.6678C17.5968 40.387 17.4213 40.1063 17.2609 39.8305C16.9451 39.2841 16.6643 38.7376 16.4287 38.1962C15.3909 35.86 15.0099 33.5739 14.9598 31.719V21.8778L24.1492 18.7244C24.1542 18.579 24.1693 18.4487 24.1793 18.3434V18.3133C24.1994 18.1429 24.2194 17.9724 24.2445 17.807V17.7418L24.2645 17.6766L24.2746 17.6415C24.2996 17.4811 24.3397 17.2605 24.4049 17.0199C24.43 16.8795 24.4651 16.7642 24.4851 16.684L24.5002 16.6439V16.6238L24.5102 16.6088C24.5854 16.3531 24.6756 16.1024 24.7759 15.8568L14.1426 19.5065C13.1299 19.8524 12.4531 20.805 12.4531 21.8778V31.7842C12.4982 33.4636 12.779 35.7296 13.7165 38.1962C13.917 38.7326 14.1526 39.2791 14.4234 39.8305C14.674 40.3469 14.9548 40.8633 15.2706 41.3847C15.3508 41.52 15.4361 41.6554 15.5213 41.7908C18.0981 45.8165 22.0787 48.8195 27.3528 50.7245C27.6285 50.8248 27.9142 50.8699 28.2 50.8699C28.4858 50.8699 28.7765 50.8248 29.0523 50.7245C34.3263 48.8195 38.3069 45.8165 40.8837 41.7908C40.969 41.6554 41.0542 41.52 41.1344 41.3847C41.4502 40.8633 41.731 40.3469 41.9817 39.8305C42.2524 39.2791 42.488 38.7326 42.6885 38.1962C43.621 35.7296 43.9068 33.4636 43.9519 31.7842V21.8778C43.9519 20.805 43.2701 19.8524 42.2574 19.5065V19.5115Z" fill="#FFA149"/>
<path d="M28.2 46.1213C31.5038 44.9281 33.8701 43.2436 35.5496 41.3887H20.8555C22.5299 43.2436 24.8962 44.9281 28.2 46.1213Z" fill="white"/>
<path d="M24.41 38.2012H18.6597C18.9354 38.7476 19.2563 39.2941 19.6272 39.8355H36.7779C37.1438 39.2941 37.4697 38.7476 37.7454 38.2012H24.41Z" fill="white"/>
<path d="M26.1593 36.5707C26.4752 36.6208 26.796 36.6509 27.1169 36.6509C27.7736 36.6509 28.4354 36.5356 29.0621 36.2598C29.6135 36.0242 30.1299 35.7435 30.5159 35.2622C30.536 35.2371 30.556 35.207 30.5761 35.182C31.0624 34.5352 31.1476 33.8233 31.0223 33.1014C30.9872 32.8909 30.932 32.6803 30.8669 32.4697C30.5159 31.3568 29.7589 30.4845 29.027 29.6021C28.8716 29.4116 28.7111 29.2261 28.5607 29.0306C27.162 27.311 25.9187 25.4711 24.9712 23.4558C24.7005 22.9043 24.4799 22.3428 24.2693 21.7663C24.2392 21.7061 24.1841 21.666 24.1289 21.666C24.0888 21.666 24.0537 21.6811 24.0237 21.7161C23.9234 21.8114 23.8131 21.9417 23.7429 22.027C23.6978 22.0771 23.6627 22.1222 23.6276 22.1724C22.8906 23.0798 22.4495 24.1125 22.3843 25.3057C22.3091 26.4939 22.6049 27.5968 23.1313 28.6345C23.5424 29.4567 24.0537 30.2438 24.5952 31.0008C24.7957 31.2816 24.9812 31.5673 25.0714 31.9233C25.2018 32.4798 25.0815 32.7254 24.6102 32.7254C24.54 32.7254 24.4598 32.7204 24.3596 32.7004C24.2844 32.7004 24.2292 32.6502 24.159 32.6252C23.5725 32.4146 23.1864 31.9534 22.8004 31.4871C22.2489 30.8153 21.8178 30.0533 21.3616 29.2963C21.3265 29.2512 21.2764 29.2311 21.2362 29.2311C21.161 29.2311 21.0858 29.2813 21.0858 29.3715C20.9906 31.0109 21.2413 32.57 22.1386 33.9788C23.0862 35.4427 24.4598 36.32 26.1593 36.5707Z" fill="white"/>
<path d="M26.2548 20.1926C26.325 20.6087 26.4353 21.0198 26.5757 21.4209C26.6258 21.5663 26.681 21.7117 26.7411 21.8571C27.1973 22.9901 27.8441 24.0228 28.5409 25.0205C28.7114 25.2661 28.8969 25.5068 29.0773 25.7474C29.4132 26.2036 29.7642 26.6398 30.1201 27.0759C30.4961 27.5472 30.8771 28.0134 31.2531 28.4897C31.3985 28.6802 31.5439 28.8657 31.6893 29.0612C32.4062 30.0238 32.9125 31.0515 33.0479 32.2798C33.0579 32.4402 33.0679 32.5906 33.0679 32.741C33.0679 32.8663 33.0629 32.9967 33.0479 33.117C32.9978 33.6534 32.8273 34.1548 32.5365 34.636C32.4964 34.6962 32.5466 34.7564 32.6017 34.7564C32.6218 34.7564 32.6318 34.7513 32.6518 34.7463C32.7822 34.6461 32.9025 34.5408 33.0228 34.4355C33.098 34.3603 33.1782 34.2901 33.2534 34.2149C34.4867 33.0919 35.4292 31.8135 35.8253 30.1992C35.8804 29.9736 35.9306 29.743 35.9606 29.4974C36.0007 29.1765 36.0158 28.8607 36.0007 28.5499C35.9857 27.8731 35.8503 27.2313 35.6147 26.5896V26.5796C35.1986 25.4817 34.5268 24.5542 33.7347 23.717C33.4239 23.3911 33.1131 23.0603 32.8123 22.7193C32.1706 22.0024 31.5639 21.2655 31.0025 20.4884C30.8721 20.3129 30.7468 20.1325 30.6214 19.947C30.4109 19.6412 30.2154 19.3353 30.0249 19.0195C29.9246 18.8591 29.8343 18.6886 29.7391 18.5232C29.6087 18.2876 29.4834 18.0469 29.3631 17.8013C29.3531 17.7762 29.338 17.7511 29.328 17.7211C29.1977 17.4503 29.0773 17.1746 28.962 16.8989C28.9069 16.7685 28.8567 16.6332 28.8116 16.5078C28.7565 16.3725 28.7114 16.2421 28.6712 16.1068C28.6261 15.9714 28.586 15.836 28.5559 15.7007C28.5058 15.5152 28.4707 15.3297 28.4457 15.1442C28.4306 15.0439 28.4156 14.9437 28.4055 14.8384C28.3955 14.7532 28.3905 14.6679 28.3855 14.5827C28.3805 14.4824 28.3805 14.3721 28.3805 14.2619C28.3805 14.2067 28.3404 14.1816 28.3003 14.1816C28.2752 14.1816 28.2551 14.1917 28.2401 14.2067C28.1047 14.3671 27.9744 14.5225 27.8491 14.683C27.7939 14.7481 27.7438 14.8183 27.6937 14.8835C27.1422 15.5904 26.686 16.3273 26.4303 17.1846C26.4052 17.2749 26.3751 17.3701 26.3601 17.4654C26.31 17.6459 26.2749 17.8263 26.2448 18.0068C26.2398 18.0319 26.2348 18.0569 26.2298 18.082C26.2097 18.2274 26.1897 18.3778 26.1746 18.5232C26.1596 18.6936 26.1445 18.8691 26.1445 19.0396C26.1445 19.3454 26.1696 19.6462 26.2097 19.947C26.2197 20.0272 26.2348 20.1124 26.2548 20.1926Z" fill="white"/>
</svg>
