<svg width="57" height="64" viewBox="0 0 57 64" fill="none" xmlns="http://www.w3.org/2000/svg">
<path d="M56.4 44.259V18.9316C56.4 16.6906 55.2068 14.6251 53.2667 13.5022L31.3333 0.83848C29.3932 -0.279493 27.0068 -0.279493 25.0667 0.83848L3.13333 13.5022C1.19317 14.6201 0 16.6906 0 18.9316V44.259C0 46.4999 1.19317 48.5654 3.13333 49.6884L25.0667 62.3521C27.0068 63.4701 29.3932 63.4701 31.3333 62.3521L53.2667 49.6884C55.2068 48.5704 56.4 46.4999 56.4 44.259Z" fill="#1A6AFF"/>
<path d="M28.1697 41.3259C27.6584 41.3259 27.152 41.1955 26.6958 40.9349L20.7801 37.5208C19.8727 36.9994 19.3062 36.0218 19.3062 34.974V28.1458C19.3062 27.0981 19.8676 26.1205 20.7751 25.5991L26.6908 22.185C27.5982 21.6636 28.7262 21.6636 29.6336 22.185L35.5494 25.5991C36.4568 26.1255 37.0233 27.0981 37.0233 28.1458V34.974C37.0233 36.0218 36.4618 36.9994 35.5494 37.5208L29.6336 40.9349C29.1774 41.1955 28.6711 41.3259 28.1597 41.3259H28.1697ZM28.1697 24.2856C28.0945 24.2856 28.0193 24.3056 27.9491 24.3457L22.0334 27.7598C21.898 27.84 21.8128 27.9804 21.8128 28.1358V34.964C21.8128 35.1194 21.898 35.2648 22.0284 35.34L27.9441 38.7541C28.0795 38.8343 28.2449 38.8343 28.3803 38.7541L34.296 35.34C34.4314 35.2598 34.5166 35.1194 34.5166 34.964V28.1358C34.5166 27.9804 34.4314 27.835 34.296 27.7598L28.3803 24.3457C28.3151 24.3056 28.2399 24.2856 28.1597 24.2856H28.1697Z" fill="#34AFFF"/>
<path d="M28.2051 29.3343C27.3178 29.3343 26.4304 29.1387 25.5982 28.7477L15.4161 23.9148C14.8997 23.6692 14.5689 23.1528 14.5588 22.5813C14.5488 22.0098 14.8646 21.4834 15.371 21.2177L25.4829 15.9637C27.1974 15.1114 29.2178 15.1114 30.9073 15.9537L41.0443 21.2227C41.5506 21.4884 41.8665 22.0148 41.8564 22.5863C41.8464 23.1578 41.5155 23.6742 40.9991 23.9199L30.8221 28.7527C29.9949 29.1438 29.1075 29.3443 28.2151 29.3443L28.2051 29.3343ZM19.4418 22.4911L26.8916 26.0255C27.7289 26.4215 28.6864 26.4215 29.5236 26.0255L36.9684 22.4911L29.5437 18.6308C28.7165 18.2197 27.6988 18.2197 26.8465 18.6408L19.4468 22.486L19.4418 22.4911Z" fill="white"/>
<path d="M25.1867 47.8732C24.9611 47.8732 24.7355 47.823 24.53 47.7228L16.258 43.7071C14.1824 42.6994 12.8389 40.5537 12.8389 38.2476V28.2309C12.8389 27.7196 13.0996 27.2433 13.5257 26.9676C13.9568 26.6918 14.4933 26.6517 14.9595 26.8573L24.0988 30.9632C25.673 31.6701 26.6907 33.2443 26.6907 34.9739V46.3742C26.6907 46.8906 26.425 47.3718 25.9838 47.6476C25.7432 47.798 25.4624 47.8782 25.1867 47.8782V47.8732ZM15.8469 30.5521V38.2426C15.8469 39.4056 16.5237 40.4885 17.5715 40.9949L23.6827 43.9628V34.9638C23.6827 34.4174 23.3619 33.9211 22.8655 33.7005L15.8469 30.5471V30.5521Z" fill="white"/>
<path d="M31.213 47.8633C30.9373 47.8633 30.6565 47.7881 30.4159 47.6327C29.9747 47.3569 29.709 46.8757 29.709 46.3593V34.959C29.709 33.2294 30.7267 31.6602 32.3009 30.9483L41.4352 26.8424C41.9014 26.6318 42.4378 26.6719 42.869 26.9527C43.2951 27.2284 43.5558 27.7047 43.5558 28.216V38.2327C43.5558 40.5438 42.2122 42.6845 40.1367 43.6972L31.8647 47.7129C31.6542 47.8132 31.4336 47.8633 31.208 47.8633H31.213ZM40.5528 30.5422L33.5342 33.6956C33.0378 33.9212 32.717 34.4175 32.717 34.959V43.9579L38.8282 40.99C39.876 40.4787 40.5528 39.4008 40.5528 38.2327V30.5422Z" fill="white"/>
</svg>
