<svg width="57" height="64" viewBox="0 0 57 64" fill="none" xmlns="http://www.w3.org/2000/svg">
<path d="M56.4 45.0685V19.7412C56.4 17.5002 55.2068 15.4347 53.2667 14.3117L31.3333 1.64805C29.3932 0.530077 27.0068 0.530077 25.0667 1.64805L3.13333 14.3117C1.19317 15.4297 0 17.5002 0 19.7412V45.0685C0 47.3095 1.19317 49.375 3.13333 50.498L25.0667 63.1617C27.0068 64.2796 29.3932 64.2796 31.3333 63.1617L53.2667 50.498C55.2068 49.38 56.4 47.3095 56.4 45.0685Z" fill="#2CC3F2"/>
<path d="M39.4599 29.5676H17.9427C17.1356 29.5676 16.5591 28.7805 16.8097 28.0084L17.7473 25.1308C17.9077 24.6395 18.3639 24.3086 18.8803 24.3086H40.3975C41.2046 24.3086 41.7812 25.0957 41.5305 25.8677L40.5929 28.7454C40.4325 29.2367 39.9763 29.5676 39.4599 29.5676Z" fill="white"/>
<path d="M36.5322 40.301H15.0149C14.2077 40.301 13.6313 39.5139 13.882 38.7418L14.8194 35.8642C14.9799 35.3729 15.4361 35.042 15.9524 35.042H37.4696C38.2768 35.042 38.8533 35.8291 38.6027 36.6011L37.6652 39.4788C37.5048 39.9701 37.0486 40.301 36.5322 40.301Z" fill="white"/>
<path d="M28.4557 20.3827L21.0009 45.1185C20.8505 45.6198 20.3843 45.9658 19.8629 45.9658H17.0905C16.2934 45.9658 15.7219 45.1987 15.9525 44.4317L23.4074 19.6959C23.5578 19.1946 24.0239 18.8486 24.5453 18.8486H27.3177C28.1148 18.8486 28.6863 19.6157 28.4557 20.3827Z" fill="white"/>
<path d="M39.1642 20.3827L31.7093 45.1185C31.5589 45.6198 31.0927 45.9658 30.5713 45.9658H27.7989C27.0018 45.9658 26.4304 45.1987 26.661 44.4317L34.1157 19.6959C34.2661 19.1946 34.7324 18.8486 35.2538 18.8486H38.0262C38.8233 18.8486 39.3948 19.6157 39.1642 20.3827Z" fill="white"/>
<path d="M35.339 33.2321L31.188 29.5674H36.4421L35.339 33.2321Z" fill="#74DFFF"/>
<path d="M24.5856 33.2321L20.4346 29.5674H25.6885L24.5856 33.2321Z" fill="#74DFFF"/>
<path d="M32.0754 43.9655L27.9243 40.3008H33.1784L32.0754 43.9655Z" fill="#74DFFF"/>
<path d="M21.3918 43.9655L17.2407 40.3008H22.4947L21.3918 43.9655Z" fill="#74DFFF"/>
</svg>
