<svg width="57" height="64" viewBox="0 0 57 64" fill="none" xmlns="http://www.w3.org/2000/svg">
<path d="M56.2299 44.1255V18.8745C56.2299 16.6403 55.0403 14.581 53.106 13.4614L31.2388 0.835951C29.3045 -0.27865 26.9254 -0.27865 24.9911 0.835951L3.12388 13.4614C1.18958 14.576 0 16.6403 0 18.8745V44.1255C0 46.3597 1.18958 48.419 3.12388 49.5386L24.9911 62.164C26.9254 63.2786 29.3045 63.2786 31.2388 62.164L53.106 49.5386C55.0403 48.424 56.2299 46.3597 56.2299 44.1255Z" fill="#1A6AFF"/>
<path d="M42.6248 39.2275C42.6248 39.9472 42.24 40.617 41.6202 40.9718L29.1247 48.1892C28.8098 48.3692 28.6099 48.7091 28.6099 49.0739C28.6099 49.7387 28.075 50.2785 27.4103 50.2785C27.2153 50.2785 27.0204 50.2285 26.8455 50.1336C24.9112 49.0889 20.8976 46.8147 20.8526 46.7898L14.4749 43.1011C14.3349 43.0161 14.215 42.9261 14.115 42.8262C14.075 42.7862 14.0351 42.7412 14.0001 42.7012L13.9801 42.6762L13.9401 42.6262L13.8951 42.5563L13.8501 42.4913L13.8401 42.4763V42.4613C13.6752 42.1914 13.5952 41.8965 13.5952 41.5866V39.2325C13.6002 38.5327 14.17 37.9629 14.8698 37.9629C15.0897 37.9629 15.3046 38.0229 15.4995 38.1328L27.6052 45.1253C27.7602 45.2103 27.9351 45.2603 28.11 45.2603C28.285 45.2603 28.4649 45.2103 28.6148 45.1253L40.7255 38.1328C40.9205 38.0179 41.1354 37.9629 41.3603 37.9629C42.06 37.9629 42.6248 38.5277 42.6248 39.2275Z" fill="#34AFFF"/>
<path d="M42.6297 31.4953C42.6297 32.12 42.2899 32.6999 41.755 33.0097L28.9896 40.3771C28.7597 40.5121 28.6147 40.762 28.6147 41.0319C28.6147 41.7466 28.0349 42.3264 27.3202 42.3264C27.1103 42.3264 26.8953 42.2714 26.7054 42.1715C24.7311 41.0969 20.8975 38.9276 20.8575 38.9026L14.4698 35.2189C13.935 34.9041 13.6001 34.3193 13.6001 33.6995V30.8805C13.6001 30.3307 14.0449 29.8809 14.5997 29.8809C14.7747 29.8809 14.9446 29.9309 15.0996 30.0158L27.745 37.3132C27.855 37.3782 27.985 37.4132 28.1149 37.4132C28.2449 37.4132 28.3698 37.3782 28.4848 37.3132L40.5955 30.3257C40.8054 30.2058 41.0353 30.1408 41.2702 30.1408C42.0199 30.1408 42.6297 30.7505 42.6297 31.4953Z" fill="white"/>
<path d="M42.3947 21.9735C42.3597 21.9185 42.3247 21.8685 42.2947 21.8186L42.2847 21.8036L42.2697 21.7836C42.2198 21.7186 42.1698 21.6736 42.1148 21.6186C42.0048 21.5037 41.8899 21.4137 41.7549 21.3387L28.9895 13.9664C28.7246 13.8114 28.4247 13.7314 28.1148 13.7314C27.8049 13.7314 27.51 13.8114 27.2451 13.9614L14.4747 21.3387C14.3397 21.4137 14.2198 21.5037 14.1198 21.6136C14.0548 21.6686 14.0048 21.7336 13.9649 21.7886C13.8749 21.8935 13.7949 22.0335 13.7349 22.1834C13.645 22.4034 13.605 22.6283 13.605 22.8532V25.8121C13.605 26.117 13.685 26.4169 13.8349 26.6868C13.8699 26.7468 13.9149 26.8168 13.9649 26.8817V26.8918L13.9798 26.9017L13.9998 26.9267C14.0398 26.9717 14.0798 27.0167 14.1248 27.0567C14.2298 27.1617 14.3447 27.2516 14.4747 27.3266C14.5696 27.3766 23.5114 32.4898 26.7253 34.2641C26.9152 34.3691 27.1301 34.4241 27.3401 34.4241C28.0448 34.4241 28.6196 33.8493 28.6196 33.1445C28.6196 32.8746 28.7646 32.6247 28.9945 32.4898L41.7599 25.1224C42.2597 24.8375 42.5846 24.3227 42.6246 23.7479C42.6296 23.6979 42.6346 23.6579 42.6346 23.6079V22.8532C42.6346 22.5433 42.5496 22.2384 42.3947 21.9735ZM27.59 17.1202L27.605 17.75C27.615 18.3548 27.9499 18.9196 28.4747 19.2245L36.8467 24.0627C37.0466 24.1777 37.2665 24.2527 37.4964 24.2827L28.1198 29.6408L16.9938 23.1981C17.0937 23.1631 17.1937 23.1181 17.2887 23.0631L27.59 17.1202Z" fill="white"/>
</svg>
