<svg width="57" height="64" viewBox="0 0 57 64" fill="none" xmlns="http://www.w3.org/2000/svg">
<path d="M56.4 44.259V18.9316C56.4 16.6906 55.2068 14.6251 53.2667 13.5022L31.3333 0.83848C29.3932 -0.279493 27.0068 -0.279493 25.0667 0.83848L3.13333 13.5022C1.19317 14.6201 0 16.6906 0 18.9316V44.259C0 46.4999 1.19317 48.5654 3.13333 49.6884L25.0667 62.3521C27.0068 63.4701 29.3932 63.4701 31.3333 62.3521L53.2667 49.6884C55.2068 48.5704 56.4 46.4999 56.4 44.259Z" fill="#009657"/>
<path d="M13.847 31.5951C13.847 23.684 20.2841 17.2469 28.2002 17.2469C28.501 17.2469 28.8018 17.2569 29.0976 17.277L29.5989 16.8559L29.6189 16.8358L31.1981 15.5073L31.6844 15.1012C30.5615 14.8656 29.3933 14.7402 28.2002 14.7402C18.8904 14.7402 11.3403 22.2853 11.3403 31.5951C11.3403 37.0546 13.9372 41.9075 17.9629 44.9857H17.968L18.0582 44.74L18.2788 44.1434L18.7901 42.7848L18.8854 42.5241V42.5041C15.8072 39.8771 13.847 35.9617 13.847 31.5951Z" fill="#5DD1A4"/>
<path d="M37.7857 17.7334L37.515 18.4553L37.4999 18.5004L37.4849 18.5355L37.2944 19.0519L36.8733 20.1749C40.3174 22.7969 42.5484 26.9379 42.5484 31.5953C42.5484 39.5063 36.1112 45.9434 28.2002 45.9434C27.6437 45.9434 27.0973 45.9133 26.5608 45.8482L25.9592 46.3495L25.7086 46.5601L24.37 47.6881L24.0742 47.9387C25.3927 48.2746 26.7764 48.4501 28.2002 48.4501C37.5049 48.4501 45.055 40.905 45.055 31.5953C45.055 25.85 42.1774 20.7715 37.7857 17.7334Z" fill="white"/>
<path d="M38.4424 33.2345L35.63 35.6008L29.9148 34.4678C29.9148 34.4678 29.8747 34.4628 29.8646 34.4628C29.644 34.4628 29.5438 34.7586 29.7393 34.8889L33.5845 37.3204L26.7413 43.0757L23.3924 42.4189C23.3924 42.4189 23.3573 42.4139 23.3423 42.4139C23.1217 42.4139 23.0264 42.7097 23.227 42.835L25.3927 44.2037L24.6608 44.8203L24.4151 45.0309L24.0592 45.3317L23.0866 46.1489L22.5251 46.6201L22.2995 46.8106L21.8283 47.2067L20.2039 48.5653L20.0385 48.7057C19.9031 48.816 19.7578 48.8661 19.6174 48.8661C19.1912 48.8661 18.8102 48.445 18.9907 47.9637L19.6725 46.1388L19.843 45.6876L19.9382 45.442L20.1588 44.8454L20.5699 43.7425L20.6702 43.4818L20.7654 43.2311L22.8811 37.5811L26.8917 38.1225C26.8917 38.1225 26.9168 38.1275 26.9268 38.1275C27.1524 38.1275 27.2527 37.8117 27.0371 37.6964L23.5579 35.7813L24.6257 32.9337L17.4767 31.3846C16.8149 31.2392 16.6044 30.397 17.1258 29.9558L30.8823 18.395L30.9074 18.375L31.7246 17.6832L32.4866 17.0414L33.008 16.6053L33.0431 16.5752L34.0056 15.7681L35.3693 14.625L35.5347 14.4897C35.6651 14.3744 35.8155 14.3242 35.9608 14.3242C36.377 14.3242 36.758 14.7504 36.5825 15.2266L36.0411 16.6755L35.64 17.7533L35.625 17.7884L35.4144 18.3449L35.1537 19.0518L34.8078 19.9692L34.7978 19.9893L30.9475 30.2616L38.0865 31.8057C38.7533 31.9511 38.9588 32.7984 38.4424 33.2345Z" fill="white"/>
<path d="M39.2695 28.1961L37.8407 29.2138L36.447 30.2064L36.1512 30.422L36.1161 30.4471L32.2759 29.6048V29.5798L34.7926 22.877L34.8878 23.3282L35.3491 25.7045L35.7 27.5093L34.186 28.6122L39.0489 27.6496C39.0489 27.6496 39.084 27.6446 39.099 27.6446C39.3798 27.6446 39.5201 28.0256 39.2745 28.2011L39.2695 28.1961Z" fill="#5DD1A4"/>
</svg>
