<svg width="57" height="64" viewBox="0 0 57 64" fill="none" xmlns="http://www.w3.org/2000/svg">
<path d="M56.4 44.259V18.9316C56.4 16.6906 55.2068 14.6251 53.2667 13.5022L31.3333 0.83848C29.3932 -0.279493 27.0068 -0.279493 25.0667 0.83848L3.13333 13.5022C1.19317 14.6201 0 16.6906 0 18.9316V44.259C0 46.4999 1.19317 48.5654 3.13333 49.6884L25.0667 62.3521C27.0068 63.47 29.3932 63.47 31.3333 62.3521L53.2667 49.6884C55.2068 48.5704 56.4 46.4999 56.4 44.259Z" fill="#7B62D5"/>
<path d="M45.9021 40.8997L28.5259 18.3798C28.4256 18.2545 28.2903 18.1943 28.1499 18.1943V20.6308C28.2401 20.6308 28.3354 20.6759 28.3855 20.7762L32.702 28.8627C32.8173 29.0733 32.6268 29.3289 32.4012 29.2688L29.3531 28.4867V35.2647C29.3531 35.9014 29.7592 36.4629 30.3608 36.6635L45.3757 41.6818C45.8319 41.8372 46.1979 41.2807 45.9021 40.8997Z" fill="#9E9EE8"/>
<path d="M28.15 18.1943V20.6308C28.0547 20.6308 27.9645 20.6759 27.9093 20.7762L23.5979 28.8627C23.4826 29.0733 23.6681 29.3289 23.8987 29.2688L26.9468 28.4867V35.2647C26.9468 35.9014 26.5407 36.4629 25.9391 36.6635L10.9292 41.6818C10.473 41.8372 10.1019 41.2807 10.4027 40.8997L27.779 18.3798C27.8742 18.2545 28.0146 18.1943 28.155 18.1943H28.15Z" fill="white"/>
</svg>
