<svg width="57" height="64" viewBox="0 0 57 64" fill="none" xmlns="http://www.w3.org/2000/svg">
<path d="M57 44.8259V19.1741C57 16.9044 55.7941 14.8125 53.8333 13.6751L31.6667 0.84922C29.7059 -0.283073 27.2941 -0.283073 25.3333 0.84922L3.16667 13.6751C1.20587 14.8074 0 16.9044 0 19.1741V44.8259C0 47.0955 1.20587 49.1875 3.16667 50.3249L25.3333 63.1508C27.2941 64.2831 29.7059 64.2831 31.6667 63.1508L53.8333 50.3249C55.7941 49.1926 57 47.0955 57 44.8259Z" fill="#7B62D5"/>
<path d="M30.5612 16.0351V30.7209H26.4331V16.0351C26.4331 14.9114 27.3563 14 28.4998 14C29.0663 14 29.5856 14.2278 29.958 14.5955C30.3304 14.9632 30.5612 15.4707 30.5612 16.0351Z" fill="white"/>
<path d="M17.1281 27.2568V30.7211H13V27.2568C13 26.1331 13.9232 25.2217 15.0614 25.2217C15.6279 25.2217 16.1472 25.4495 16.5196 25.8172C16.8973 26.1849 17.1281 26.6975 17.1281 27.2568Z" fill="white"/>
<path d="M44.0001 27.2568V30.7211H39.8721V27.2568C39.8721 26.1331 40.7952 25.2217 41.9334 25.2217C42.5052 25.2217 43.0192 25.4495 43.3917 25.8172C43.7693 26.1849 44.0001 26.6975 44.0001 27.2568Z" fill="white"/>
<path d="M23.8419 22.1868V30.7207H19.7139V22.1868C19.7139 21.0579 20.6423 20.1465 21.7805 20.1465C22.3522 20.1465 22.8663 20.3743 23.2387 20.742C23.6111 21.1148 23.8419 21.6223 23.8419 22.1868Z" fill="white"/>
<path d="M37.2804 22.1868V30.7207H33.1523V22.1868C33.1523 21.6223 33.3832 21.1148 33.7556 20.742C34.128 20.3743 34.6473 20.1465 35.2138 20.1465C36.3573 20.1465 37.2804 21.0579 37.2804 22.1868Z" fill="white"/>
<path d="M26.4385 47.9651V33.2793H30.5665V47.9651C30.5665 49.0888 29.6434 50.0002 28.4999 50.0002C27.9334 50.0002 27.4141 49.7724 27.0417 49.4047C26.6693 49.0371 26.4385 48.5296 26.4385 47.9651Z" fill="#9E9EE8"/>
<path d="M39.8721 36.7436V33.2793H44.0001V36.7436C44.0001 37.8673 43.0769 38.7787 41.9387 38.7787C41.3722 38.7787 40.8529 38.5509 40.4805 38.1832C40.1028 37.8156 39.8721 37.3029 39.8721 36.7436Z" fill="#9E9EE8"/>
<path d="M13 36.7436V33.2793H17.1281V36.7436C17.1281 37.8673 16.2049 38.7787 15.0667 38.7787C14.4949 38.7787 13.9809 38.5509 13.6085 38.1832C13.2308 37.8156 13 37.3029 13 36.7436Z" fill="#9E9EE8"/>
<path d="M33.1572 41.8132V33.2793H37.2853V41.8132C37.2853 42.9421 36.3568 43.8535 35.2186 43.8535C34.6469 43.8535 34.1329 43.6257 33.7605 43.258C33.388 42.8852 33.1572 42.3777 33.1572 41.8132Z" fill="#9E9EE8"/>
<path d="M19.7197 41.8132V33.2793H23.8478V41.8132C23.8478 42.3777 23.617 42.8852 23.2446 43.258C22.8721 43.6257 22.3528 43.8535 21.7863 43.8535C20.6429 43.8535 19.7197 42.9421 19.7197 41.8132Z" fill="#9E9EE8"/>
</svg>
