<svg width="58" height="66" viewBox="0 0 58 66" fill="none" xmlns="http://www.w3.org/2000/svg">
<path d="M58 45.9308V20.1094C58 17.8248 56.7836 15.719 54.8056 14.5741L32.4444 1.66343C30.4664 0.523649 28.0336 0.523649 26.0556 1.66343L3.69444 14.5741C1.71644 15.7139 0.5 17.8248 0.5 20.1094V45.9308C0.5 48.2154 1.71644 50.3212 3.69444 51.4661L26.0556 64.3768C28.0336 65.5165 30.4664 65.5165 32.4444 64.3768L54.8056 51.4661C56.7836 50.3263 58 48.2154 58 45.9308Z" fill="#A0D346"/>
<path d="M45.2679 27.9033C43.3001 22.1788 39.3748 18.1973 35.9963 18.1973C35.5568 18.1973 35.1172 18.2739 34.693 18.4119C33.6043 18.7902 32.7354 19.6284 32.1272 20.7886L10.3794 35.8102C10.2874 35.8357 10.1954 35.8613 10.1034 35.8919C9.1221 36.2293 8.33498 36.9295 7.87498 37.8546C6.93965 39.7764 7.73698 42.107 9.65876 43.0475C10.2057 43.3133 10.7832 43.441 11.3557 43.441C11.8872 43.441 12.4085 43.3286 12.889 43.1242L18.8741 42.7817L19.5641 45.5673C19.6561 45.9455 19.9934 46.2062 20.3819 46.2062H20.4279L28.2632 45.7768C28.5085 45.7615 28.7385 45.6388 28.8919 45.4395C29.0401 45.2402 29.0912 44.9846 29.035 44.7444L28.4574 42.2348L39.339 41.6164C40.0494 41.923 40.7599 42.0917 41.4448 42.0917C41.8945 42.0917 42.3341 42.0253 42.7532 41.8822C46.3616 40.6402 47.4861 34.3739 45.2679 27.9033ZM21.031 44.4837L20.5863 42.6846L26.7503 42.3319L27.1694 44.1464L21.031 44.4837ZM35.9094 38.9893L18.1432 40.0064L15.2043 40.175H15.1941L13.717 40.2619L12.0303 40.359C11.9281 40.4562 11.7952 40.5277 11.6521 40.5788C11.6265 40.589 11.601 40.5942 11.5754 40.5942C11.3199 40.6657 11.0643 40.6453 10.8241 40.5277C10.5634 40.3999 10.3641 40.1802 10.2721 39.9042H10.267C10.175 39.6282 10.1954 39.3266 10.3232 39.0659C10.4408 38.8257 10.6299 38.6519 10.8752 38.5548C10.8905 38.5395 10.9161 38.5293 10.9468 38.519C11.0848 38.473 11.2381 38.4475 11.3812 38.4628L12.7714 37.4968L13.993 36.6535L31.3708 24.6475C31.1663 26.9015 31.4883 29.5746 32.4185 32.2835C32.4185 32.2835 32.4202 32.2869 32.4236 32.2937C33.359 35.0026 34.739 37.3077 36.2928 38.9637L35.9043 38.9842H35.9094V38.9893ZM43.5608 35.3297C43.5352 35.6364 43.5045 35.9277 43.4585 36.2037C43.4125 36.4797 43.3563 36.7404 43.295 36.9857C43.2336 37.231 43.1621 37.461 43.0803 37.6706C43.0445 37.7728 42.9985 37.875 42.9576 37.9722C42.8708 38.1613 42.7788 38.335 42.6765 38.4833C42.6305 38.5599 42.5794 38.6315 42.5232 38.6979C42.4721 38.7644 42.4159 38.8206 42.3596 38.8768C42.1961 39.0455 42.0223 39.1579 41.8434 39.2193C41.7923 39.2397 41.7412 39.2499 41.685 39.255C41.6645 39.2602 41.6492 39.2653 41.6288 39.2653C41.6185 39.2755 41.6083 39.2755 41.5981 39.2704C41.5521 39.2806 41.501 39.2857 41.4448 39.2857C40.5605 39.2857 39.3492 38.5548 38.2043 37.3333C38.143 37.2668 38.0817 37.2004 38.0203 37.1288C37.9692 37.0726 37.9181 37.0164 37.8721 36.955C37.7954 36.863 37.7188 36.771 37.6421 36.679C37.5654 36.587 37.4888 36.495 37.4172 36.3979C37.0799 35.9635 36.763 35.4933 36.4614 34.9924C36.4103 34.9055 36.3541 34.8135 36.303 34.7215C36.2519 34.6346 36.2059 34.5477 36.1548 34.4608C36.1088 34.3739 36.0628 34.287 36.0168 34.2002C35.9708 34.1184 35.9299 34.0417 35.889 33.9599C35.7561 33.7095 35.6334 33.4539 35.521 33.1933C35.5108 33.1779 35.5057 33.1677 35.5005 33.1524C35.3779 32.8815 35.2654 32.6106 35.153 32.3346C35.0405 32.0535 34.9332 31.7673 34.8361 31.481C34.6981 31.0773 34.5703 30.6684 34.4681 30.2595C34.2841 29.6053 34.1461 28.951 34.0439 28.307C33.9774 27.8879 33.9263 27.4688 33.8956 27.065C33.8854 26.9219 33.8752 26.7788 33.865 26.6408C33.865 26.5642 33.8599 26.4926 33.8599 26.4159C33.8548 26.329 33.8496 26.2422 33.8496 26.1604V25.9406C33.8496 25.7208 33.8548 25.501 33.865 25.2864C33.865 25.1228 33.8803 24.9593 33.8956 24.8008C33.9161 24.5759 33.9416 24.3562 33.9774 24.1466C34.0081 23.937 34.049 23.7326 34.095 23.5333C34.141 23.339 34.1921 23.1499 34.2483 22.9762C34.2688 22.9046 34.2943 22.833 34.3199 22.7666C34.4476 22.4088 34.5959 22.097 34.7594 21.8364C34.8361 21.7137 34.9179 21.6013 35.0048 21.5042C35.0457 21.453 35.0916 21.407 35.1376 21.3662C35.1785 21.3253 35.2245 21.2844 35.2705 21.2537C35.3114 21.2179 35.3523 21.1924 35.3932 21.1719C35.4596 21.1259 35.5261 21.0953 35.5976 21.0697C35.7254 21.0339 35.8532 21.0084 35.9963 21.0084C37.6472 21.0084 40.8621 23.7173 42.6101 28.813C43.4585 31.2868 43.6988 33.5459 43.5608 35.3297Z" fill="white"/>
<path d="M42.6105 28.8144C40.8625 23.7187 37.6477 21.0098 35.9968 21.0098C35.8537 21.0098 35.7259 21.0353 35.5981 21.0711C35.5265 21.0967 35.4601 21.1273 35.3937 21.1733C35.3528 21.1938 35.3119 21.2193 35.271 21.2551C35.225 21.2858 35.179 21.3267 35.1381 21.3675C35.0921 21.4084 35.0461 21.4544 35.0052 21.5055C34.9183 21.6027 34.8365 21.7151 34.7599 21.8378C34.5963 22.0984 34.4481 22.4102 34.3203 22.768C34.2948 22.8344 34.2692 22.906 34.2488 22.9775C34.1925 23.1513 34.1414 23.3404 34.0954 23.5347C34.0494 23.734 34.0085 23.9384 33.9779 24.148C33.9421 24.3575 33.9165 24.5773 33.8961 24.8022C33.8808 24.9607 33.8705 25.1242 33.8654 25.2878C33.8552 25.5024 33.8501 25.7222 33.8501 25.942V26.1618C33.8501 26.2435 33.8552 26.3304 33.8603 26.4173C33.8603 26.494 33.8654 26.5655 33.8654 26.6422C33.8757 26.7802 33.8859 26.9233 33.8961 27.0664C33.9268 27.4702 33.9779 27.8893 34.0443 28.3084C34.1465 28.9524 34.2845 29.6067 34.4685 30.2609C34.5708 30.6698 34.6985 31.0787 34.8365 31.4824C34.9337 31.7687 35.041 32.0549 35.1534 32.336C35.2659 32.612 35.3783 32.8829 35.501 33.1538C35.5061 33.1691 35.5112 33.1793 35.5214 33.1947C35.6339 33.4553 35.7565 33.7109 35.8894 33.9613C35.9303 34.0431 35.9712 34.1198 36.0172 34.2015C36.0632 34.2884 36.1092 34.3753 36.1552 34.4622C36.2063 34.5491 36.2523 34.636 36.3034 34.7229C36.3545 34.8149 36.4108 34.9069 36.4619 34.9938C36.7634 35.4947 37.0803 35.9649 37.4177 36.3993C37.4892 36.4964 37.5659 36.5884 37.6425 36.6804C37.7192 36.7724 37.7959 36.8644 37.8725 36.9564C37.9185 37.0178 37.9697 37.074 38.0208 37.1302C38.0821 37.2018 38.1434 37.2682 38.2048 37.3347C39.3497 38.5562 40.561 39.2871 41.4452 39.2871C41.5014 39.2871 41.5525 39.282 41.5985 39.2718C41.6088 39.2769 41.619 39.2769 41.6292 39.2667C41.6497 39.2667 41.665 39.2667 41.6854 39.2564C41.7417 39.2513 41.7928 39.2411 41.8439 39.2207C42.0228 39.1593 42.1965 39.0469 42.3601 38.8782C42.4163 38.822 42.4725 38.7658 42.5237 38.6993C42.5799 38.6329 42.631 38.5613 42.677 38.4847C42.7792 38.3364 42.8712 38.1627 42.9581 37.9735C42.999 37.8764 43.045 37.7742 43.0808 37.672C43.1625 37.4624 43.2341 37.2324 43.2954 36.9922C43.3568 36.7418 43.413 36.4811 43.459 36.2051C43.505 35.9291 43.5357 35.6378 43.5612 35.3311C43.6992 33.5473 43.459 31.2882 42.6105 28.8144ZM39.5234 32.3002C39.1248 33.1129 38.445 33.7007 37.6579 33.9971C37.1263 33.0873 36.6612 32.0651 36.2881 30.9867C35.8792 29.806 35.6083 28.6151 35.4805 27.4804C36.2677 27.2555 37.1417 27.3067 37.939 27.7002C39.6461 28.5333 40.3565 30.5931 39.5234 32.3002Z" fill="#83B60B"/>
<path d="M32.4188 32.2844L32.1735 32.3662L15.0206 38.2696L10.2724 39.9051H10.2673C10.1753 39.6291 10.1957 39.3275 10.3235 39.0669C10.441 38.8267 10.6301 38.6529 10.8755 38.5558C10.8908 38.5404 10.9164 38.5302 10.947 38.52C11.085 38.474 11.2384 38.4484 11.3815 38.4638L12.7717 37.4978L13.9933 36.6544L31.371 24.6484C31.1666 26.9024 31.4886 29.5756 32.4188 32.2844Z" fill="white"/>
<path d="M39.5234 32.2987C39.1247 33.1114 38.4449 33.6992 37.6578 33.9956C37.1262 33.0858 36.6611 32.0636 36.288 30.9852C35.8791 29.8045 35.6082 28.6136 35.4805 27.4789C36.2676 27.2541 37.1416 27.3052 37.9389 27.6987C39.646 28.5318 40.3565 30.5916 39.5234 32.2987Z" fill="white"/>
</svg>
