<svg width="58" height="65" viewBox="0 0 58 65" fill="none" xmlns="http://www.w3.org/2000/svg">
<path d="M57.8304 44.8537V19.1849C57.8304 16.9137 56.6211 14.8204 54.6548 13.6823L32.4257 0.847832C30.4594 -0.285215 28.0409 -0.285215 26.0746 0.847832L3.8455 13.6823C1.87918 14.8153 0.669922 16.9137 0.669922 19.1849V44.8537C0.669922 47.1249 1.87918 49.2183 3.8455 50.3564L26.0746 63.1908C28.0409 64.3238 30.4594 64.3238 32.4257 63.1908L54.6548 50.3564C56.6211 49.2233 57.8304 47.1249 57.8304 44.8537Z" fill="#A0D346"/>
<path d="M36.8816 42.5719C36.0585 43.1562 35.1694 43.649 34.2294 44.0555C34.2294 44.0504 34.2192 44.0403 34.2192 44.0352C35.1592 43.6389 36.0433 43.146 36.8715 42.5566C36.8715 42.5617 36.8715 42.5668 36.8816 42.5719Z" fill="white"/>
<path d="M35.2963 27.548C35.2963 28.6709 34.3869 29.5804 33.264 29.5804H29.3618V25.5156H33.264C34.3869 25.5156 35.2963 26.4251 35.2963 27.548Z" fill="#83B60B"/>
<path d="M35.2967 33.7921C35.2967 34.915 34.3872 35.8245 33.2643 35.8245H25.709V31.7598H33.2643C34.3872 31.7598 35.2967 32.6743 35.2967 33.7921Z" fill="#83B60B"/>
<path d="M17.4064 25.5156C17.3201 25.5156 17.2337 25.5207 17.1524 25.5309C17.1473 25.5258 17.1524 25.5207 17.1625 25.5156H17.4064Z" fill="white"/>
<path d="M17.4065 35.8258H17.1626C17.1626 35.8258 17.1473 35.8156 17.1524 35.8105C17.2337 35.8207 17.3201 35.8258 17.4065 35.8258Z" fill="white"/>
<path d="M38.2129 44.7422C42.6841 41.6682 45.6158 36.5111 45.6158 30.6731C45.6158 21.2378 37.969 13.5859 28.5337 13.5859C19.0985 13.5859 11.4517 21.2378 11.4517 30.6731C11.4517 40.1084 19.0985 47.7552 28.5337 47.7552C31.0386 47.7552 33.4165 47.2166 35.5607 46.2461H35.5657L39.0411 51.9114C39.3307 52.3788 39.8286 52.6379 40.3418 52.6379C40.6162 52.6379 40.8906 52.5668 41.1395 52.4144C41.8559 51.9723 42.0795 51.0324 41.6374 50.316L38.2129 44.7422ZM34.2295 44.0563C32.4816 44.7981 30.5559 45.2147 28.5337 45.2147C20.516 45.2147 13.9921 38.6908 13.9921 30.6731C13.9921 22.6554 20.516 16.1264 28.5337 16.1264C36.5514 16.1264 43.0753 22.6503 43.0753 30.6731C43.0753 35.5863 40.6263 39.9407 36.8817 42.5726C36.0586 43.1569 35.1694 43.6498 34.2295 44.0563Z" fill="white"/>
<path d="M35.2967 21.298C35.2967 22.4209 34.3821 23.3304 33.2643 23.3304H25.709V19.2656H33.2643C33.432 19.2656 33.5997 19.286 33.7572 19.3266C34.0569 19.4028 34.3262 19.54 34.5549 19.728C35.0071 20.104 35.2967 20.668 35.2967 21.298Z" fill="#83B60B"/>
<path d="M35.2966 40.0421C35.2966 40.6518 35.0324 41.2006 34.6158 41.5715C34.6158 41.5766 34.6158 41.5766 34.6158 41.5766C34.3617 41.8052 34.0518 41.9678 33.7063 42.0339C33.7012 42.0339 33.7012 42.0389 33.6961 42.0389C33.5742 42.0643 33.4472 42.0745 33.3202 42.0745H29.3672V38.0098H33.3202C34.4125 38.0098 35.3017 38.9193 35.3017 40.0421H35.2966Z" fill="#83B60B"/>
<path d="M29.3617 38.0098V42.0745H23.4526C22.2941 41.5613 21.2271 40.8754 20.2872 40.0421C19.5962 39.4375 18.9712 38.7567 18.4326 38.0098H29.3617Z" fill="white"/>
<path d="M25.709 31.7598V35.8245H17.4068C17.3204 35.8245 17.234 35.8194 17.1527 35.8093C16.853 35.164 16.6142 34.4882 16.4363 33.7921C16.2991 33.2739 16.1975 32.7455 16.1365 32.2018C16.1162 32.0545 16.101 31.9071 16.0908 31.7598H25.709Z" fill="white"/>
<path d="M29.3622 25.5156V29.5804H16.0908C16.101 29.433 16.1162 29.2857 16.1365 29.1383C16.2026 28.5947 16.3042 28.0663 16.4363 27.548C16.6142 26.8519 16.853 26.1761 17.1527 25.5309C17.234 25.5207 17.3204 25.5156 17.4068 25.5156H29.3622Z" fill="white"/>
<path d="M25.7085 19.2656V23.3304H18.4326C18.9712 22.5835 19.5962 21.9026 20.2872 21.298C21.2271 20.4647 22.2941 19.7788 23.4526 19.2656H25.7085Z" fill="white"/>
</svg>
