<svg width="36" height="36" viewBox="0 0 36 36" fill="none" xmlns="http://www.w3.org/2000/svg">
<path d="M1 18C1 22.5087 2.791 26.8327 5.979 30.0208C9.167 33.2089 13.491 35 18 35C22.509 35 26.833 33.2089 30.021 30.0208C33.209 26.8327 35 22.5087 35 18C35 13.4913 33.209 9.1673 30.021 5.97918C26.833 2.79107 22.509 1 18 1C13.491 1 9.167 2.79107 5.979 5.97918C2.791 9.1673 1 13.4913 1 18Z" fill="white" stroke="#00C848" stroke-width="2" stroke-linecap="round" stroke-linejoin="round"/>
<path d="M22.76 13.92L18 9.16003L13.24 13.92" fill="white"/>
<path d="M22.76 13.92L18 9.16003L13.24 13.92" stroke="#00C848" stroke-width="2" stroke-linecap="round" stroke-linejoin="round"/>
<path d="M17.856 9.15994V26.6998Z" fill="white"/>
<path d="M17.856 9.15994V26.6998" stroke="#00C848" stroke-width="2" stroke-linecap="round" stroke-linejoin="round"/>
</svg>
