<svg width="27" height="26" viewBox="0 0 27 26" fill="none" xmlns="http://www.w3.org/2000/svg">
<path fill-rule="evenodd" clip-rule="evenodd" d="M13.4233 0.0339355C9.92196 0.0339355 9.48483 0.0500454 8.11009 0.111263C6.73749 0.175702 5.8031 0.391574 4.98147 0.710548C4.13407 1.03919 3.41448 1.4806 2.69811 2.19695C1.98174 2.9133 1.53924 3.6318 1.21167 4.48025C0.892682 5.30185 0.675731 6.23622 0.612364 7.60877C0.547922 8.98348 0.535034 9.42059 0.535034 12.9218C0.535034 16.423 0.551144 16.8601 0.612364 18.2348C0.676805 19.6063 0.892682 20.5417 1.21167 21.3633C1.54032 22.2096 1.98174 22.9303 2.69811 23.6466C3.41448 24.3619 4.133 24.8055 4.98147 25.133C5.80417 25.4509 6.73857 25.669 8.11009 25.7323C9.48483 25.7968 9.92196 25.8097 13.4233 25.8097C16.9246 25.8097 17.3617 25.7935 18.7364 25.7323C20.108 25.6679 21.0434 25.4509 21.8651 25.133C22.7114 24.8044 23.432 24.3619 24.1484 23.6466C24.8637 22.9303 25.3073 22.2129 25.6349 21.3633C25.9528 20.5417 26.1708 19.6063 26.2342 18.2348C26.2986 16.8601 26.3115 16.423 26.3115 12.9218C26.3115 9.42059 26.2954 8.98348 26.2342 7.60877C26.1697 6.23729 25.9528 5.30077 25.6349 4.48024C25.3062 3.63287 24.8637 2.9133 24.1484 2.19695C23.432 1.4806 22.7146 1.03811 21.8651 0.710548C21.0434 0.391574 20.108 0.174628 18.7364 0.111263C17.3617 0.0468234 16.9246 0.0339355 13.4233 0.0339355ZM13.4233 2.35375C16.8633 2.35375 17.2736 2.37093 18.6323 2.43C19.8889 2.48907 20.5709 2.69743 21.0241 2.87571C21.6277 3.10876 22.0551 3.388 22.5084 3.838C22.9584 4.28908 23.2376 4.7176 23.4707 5.32118C23.6468 5.7744 23.8574 6.45638 23.9143 7.71295C23.9755 9.07262 23.9895 9.48074 23.9895 12.9218C23.9895 16.3629 23.9733 16.772 23.91 18.1306C23.8445 19.3872 23.635 20.0692 23.4578 20.5224C23.2172 21.126 22.9434 21.5534 22.4923 22.0067C22.0423 22.4567 21.6073 22.7359 21.0101 22.969C20.559 23.1451 19.8663 23.3556 18.6097 23.4125C17.2414 23.4737 16.8386 23.4877 13.391 23.4877C9.94237 23.4877 9.53961 23.4716 8.17238 23.4082C6.91471 23.3427 6.22196 23.1333 5.77088 22.9561C5.15976 22.7155 4.73982 22.4416 4.2898 21.9906C3.83764 21.5405 3.54873 21.1056 3.32319 20.5084C3.14597 20.0574 2.93761 19.3646 2.8721 18.1081C2.82377 16.7549 2.80658 16.3371 2.80658 12.9057C2.80658 9.47322 2.82377 9.05436 2.8721 7.68503C2.93761 6.42846 3.14597 5.73681 3.32319 5.28574C3.54873 4.67356 3.83764 4.25471 4.2898 3.80256C4.73982 3.35256 5.15976 3.06258 5.77088 2.83812C6.22196 2.65984 6.89967 2.45041 8.15627 2.38597C9.52565 2.33764 9.9284 2.32153 13.3749 2.32153L13.4233 2.35375V2.35375ZM13.4233 6.30388C9.76623 6.30388 6.80516 9.26809 6.80516 12.9218C6.80516 16.5787 9.76945 19.5397 13.4233 19.5397C17.0803 19.5397 20.0414 16.5755 20.0414 12.9218C20.0414 9.26486 17.0771 6.30388 13.4233 6.30388V6.30388ZM13.4233 17.2177C11.0497 17.2177 9.12719 15.2953 9.12719 12.9218C9.12719 10.5483 11.0497 8.62584 13.4233 8.62584C15.7968 8.62584 17.7193 10.5483 17.7193 12.9218C17.7193 15.2953 15.7968 17.2177 13.4233 17.2177ZM21.85 6.0429C21.85 6.89672 21.1562 7.58944 20.3034 7.58944C19.4496 7.58944 18.7568 6.89565 18.7568 6.0429C18.7568 5.19015 19.4507 4.49743 20.3034 4.49743C21.1551 4.49636 21.85 5.19015 21.85 6.0429Z" fill="white"/>
</svg>
