<svg width="26" height="26" viewBox="0 0 26 26" fill="none" xmlns="http://www.w3.org/2000/svg">
<path fill-rule="evenodd" clip-rule="evenodd" d="M22.0864 21.9991H18.2694V16.0181C18.2694 14.5918 18.2404 12.7564 16.2803 12.7564C14.2901 12.7564 13.9862 14.3083 13.9862 15.9128V21.9991H10.1691V9.69983H13.8358V11.3763H13.8852C14.3975 10.4097 15.6434 9.38945 17.5047 9.38945C21.3722 9.38945 22.0875 11.9348 22.0875 15.2481V21.9991H22.0864ZM5.85802 8.01689C4.62934 8.01689 3.64231 7.02238 3.64231 5.7991C3.64231 4.57691 4.63041 3.58347 5.85802 3.58347C7.0824 3.58347 8.07479 4.57691 8.07479 5.7991C8.07479 7.02238 7.08132 8.01689 5.85802 8.01689ZM7.77192 21.9991H3.94411V9.69983H7.77192V21.9991ZM23.996 0.0339355H2.02806C0.9766 0.0339355 0.125977 0.865202 0.125977 1.89086V23.9527C0.125977 24.9795 0.9766 25.8097 2.02806 25.8097H23.9928C25.0432 25.8097 25.9024 24.9795 25.9024 23.9527V1.89086C25.9024 0.865202 25.0432 0.0339355 23.9928 0.0339355H23.996Z" fill="white"/>
</svg>
