<svg width="27" height="21" viewBox="0 0 27 21" fill="none" xmlns="http://www.w3.org/2000/svg">
<path d="M26.369 2.52881C25.4185 2.94659 24.4036 3.2312 23.3349 3.36115C24.424 2.70494 25.2617 1.67069 25.658 0.436681C24.6366 1.03274 23.5046 1.46664 22.2996 1.70828C21.3372 0.678329 19.9657 0.0339355 18.4428 0.0339355C15.5246 0.0339355 13.1586 2.39993 13.1586 5.31474C13.1586 5.73359 13.2069 6.13634 13.295 6.5219C8.90225 6.31462 5.00893 4.20531 2.40336 1.01663C1.94475 1.79205 1.68806 2.69313 1.68806 3.67476C1.68806 5.51128 2.62246 7.12548 4.03802 8.07381C3.17128 8.04589 2.3561 7.80746 1.6451 7.41223V7.47775C1.6451 10.0392 3.46342 12.1754 5.88318 12.6619C5.43961 12.7811 4.97134 12.8455 4.49125 12.8455C4.15401 12.8455 3.83073 12.8133 3.50745 12.7532C4.18516 14.8507 6.13343 16.38 8.45223 16.423C6.64788 17.8396 4.3613 18.6837 1.89857 18.6837C1.4797 18.6837 1.06191 18.659 0.641968 18.6118C2.99299 20.1089 5.76289 20.9842 8.75833 20.9842C18.4825 20.9842 23.7935 12.9336 23.7935 5.96342C23.7935 5.73896 23.7935 5.51235 23.7774 5.28681C24.8095 4.54683 25.7106 3.61139 26.4195 2.55029L26.369 2.52881V2.52881Z" fill="white"/>
</svg>
