<svg width="26" height="19" viewBox="0 0 26 19" fill="none" xmlns="http://www.w3.org/2000/svg">
<path fill-rule="evenodd" clip-rule="evenodd" d="M25.462 2.81451C25.1582 1.72619 24.3078 0.875753 23.2194 0.57202C21.211 0.0339508 13.1279 0.0339508 13.1279 0.0339508C13.1279 0.0339508 5.06527 0.0232105 3.03645 0.572019C1.9481 0.875751 1.09764 1.72619 0.793899 2.81451C0.413186 4.87067 0.225492 6.95791 0.233264 9.04901C0.226959 11.1322 0.414649 13.2115 0.793903 15.2599C1.09765 16.3482 1.9481 17.1986 3.03645 17.5024C5.04272 18.0415 13.1279 18.0415 13.1279 18.0415C13.1279 18.0415 21.1895 18.0415 23.2194 17.5024C24.3078 17.1986 25.1582 16.3482 25.462 15.2599C25.8333 13.2107 26.0131 11.1315 25.999 9.04901C26.0145 6.95865 25.8348 4.87141 25.462 2.81451V2.81451ZM10.5481 12.9057V5.1805L17.2758 9.04901L10.5481 12.9057Z" fill="white"/>
</svg>
